<?xml version="1.0" encoding="UTF-8" standalone="no"?>
<svg
   xmlns:dc="http://purl.org/dc/elements/1.1/"
   xmlns:cc="http://creativecommons.org/ns#"
   xmlns:rdf="http://www.w3.org/1999/02/22-rdf-syntax-ns#"
   xmlns:svg="http://www.w3.org/2000/svg"
   xmlns="http://www.w3.org/2000/svg"
   xmlns:sodipodi="http://sodipodi.sourceforge.net/DTD/sodipodi-0.dtd"
   xmlns:inkscape="http://www.inkscape.org/namespaces/inkscape"
   version="1.1"
   viewBox="0 0 449.25964 400.001"
   enable-background="new 0 0 449.259 449.259"
   id="svg2"
   inkscape:version="0.91 r13725"
   sodipodi:docname="portfolio-blue.svg"
   width="449.25964"
   height="400.00101">
  <metadata
     id="metadata14">
    <rdf:RDF>
      <cc:Work
         rdf:about="">
        <dc:format>image/svg+xml</dc:format>
        <dc:type
           rdf:resource="http://purl.org/dc/dcmitype/StillImage" />
        <dc:title></dc:title>
      </cc:Work>
    </rdf:RDF>
  </metadata>
  <defs
     id="defs12">
    <filter
       inkscape:label="Ink Paint"
       inkscape:menu="Textures"
       inkscape:menu-tooltip="Ink paint on paper with some turbulent color shift"
       height="1.3"
       y="-0.15000001"
       width="1.3"
       x="-0.15000001"
       style="color-interpolation-filters:sRGB"
       id="filter4320">
      <feTurbulence
         type="fractalNoise"
         baseFrequency="0.07"
         numOctaves="4"
         result="result0"
         id="feTurbulence4322" />
      <feDisplacementMap
         in2="result0"
         in="SourceGraphic"
         xChannelSelector="R"
         yChannelSelector="G"
         scale="10"
         result="result2"
         id="feDisplacementMap4324" />
      <feBlend
         result="result5"
         in="result2"
         mode="multiply"
         in2="result2"
         id="feBlend4326" />
      <feGaussianBlur
         stdDeviation="10"
         in="result2"
         result="result4"
         id="feGaussianBlur4328" />
      <feComposite
         operator="arithmetic"
         in2="result4"
         in="result0"
         k3="0.5"
         k1="2"
         result="result6"
         id="feComposite4330"
         k2="0"
         k4="0" />
      <feComposite
         operator="in"
         in2="result5"
         in="result6"
         result="result7"
         id="feComposite4332" />
    </filter>
  </defs>
  <sodipodi:namedview
     pagecolor="#ffffff"
     bordercolor="#666666"
     borderopacity="1"
     objecttolerance="10"
     gridtolerance="10"
     guidetolerance="10"
     inkscape:pageopacity="0"
     inkscape:pageshadow="2"
     inkscape:window-width="1366"
     inkscape:window-height="715"
     id="namedview10"
     showgrid="false"
     inkscape:zoom="0.52530945"
     inkscape:cx="-229.95813"
     inkscape:cy="228.55509"
     inkscape:window-x="-8"
     inkscape:window-y="-8"
     inkscape:window-maximized="1"
     inkscape:current-layer="svg2"
     fit-margin-top="0"
     fit-margin-left="0"
     fit-margin-right="0"
     fit-margin-bottom="0" />
  <g
     id="g4"
     transform="translate(3.0549301e-4,-24.629)"
     style="fill:#02b3e4;fill-opacity:1;filter:url(#filter4320)">
    <path
       d="M 449.206,413.6 419.517,126.883 C 417.912,111.382 404.949,99.692 389.365,99.692 l -79.673,0 0,-37.97 c 0,-20.453 -16.64,-37.093 -37.093,-37.093 l -95.938,0 c -20.453,0 -37.093,16.64 -37.093,37.093 l 0,37.969 -79.674,0 c -15.584,0 -28.547,11.689 -30.152,27.191 L 0.053,413.6 c -0.292,2.816 0.625,5.624 2.521,7.727 1.896,2.103 4.595,3.303 7.426,3.303 l 429.259,0 c 2.832,0 5.53,-1.2 7.426,-3.303 1.897,-2.103 2.813,-4.911 2.521,-7.727 z M 159.568,61.722 c 0,-9.425 7.668,-17.093 17.093,-17.093 l 95.938,0 c 9.425,0 17.093,7.668 17.093,17.093 l 0,37.969 -130.124,0 0,-37.969 z M 49.636,128.943 c 0.546,-5.274 4.957,-9.251 10.259,-9.251 l 329.47,0 c 5.302,0 9.712,3.977 10.259,9.251 l 23.556,227.485 c -22.652,6.193 -39.62,25.012 -43.457,48.202 l -310.186,0 C 65.7,381.44 48.732,362.621 26.08,356.428 L 49.636,128.943 Z M 23.978,376.731 c 12.467,4.561 21.889,15.013 25.147,27.898 l -28.036,0 2.889,-27.898 z m 376.156,27.899 c 3.258,-12.885 12.68,-23.337 25.147,-27.898 l 2.889,27.898 -28.036,0 z"
       id="path6"
       inkscape:connector-curvature="0"
       style="fill:#02b3e4;fill-opacity:1" />
    <path
       d="m 113.134,390.457 c 0.819,0 1.645,-0.101 2.459,-0.307 l 47.376,-12.021 c 1.745,-0.443 3.338,-1.349 4.612,-2.622 L 335.874,207.214 c 13.646,-13.647 13.646,-35.851 0,-49.498 -6.611,-6.61 -15.4,-10.251 -24.749,-10.251 -9.349,0 -18.138,3.641 -24.749,10.251 L 118.083,326.01 c -1.273,1.273 -2.179,2.867 -2.622,4.612 l -12.021,47.376 c -0.867,3.417 0.129,7.038 2.622,9.531 1.899,1.898 4.453,2.928 7.072,2.928 z m 17.387,-37.867 10.48,10.479 -14.042,3.563 3.562,-14.042 z M 160.51,354.294 139.297,333.081 285.67,186.708 306.883,207.921 160.51,354.294 Z M 311.125,167.465 c 4.007,0 7.773,1.56 10.606,4.394 5.849,5.848 5.849,15.365 0,21.213 l -0.707,0.707 -21.213,-21.213 0.707,-0.707 c 2.835,-2.834 6.601,-4.394 10.607,-4.394 z"
       id="path8"
       inkscape:connector-curvature="0"
       style="fill:#02b3e4;fill-opacity:1" />
  </g>
</svg>
